<svg xmlns="http://www.w3.org/2000/svg" width="62" height="62" viewBox="0 0 62 62">
  <path d="M30.863 32.489L8.21 38.6a3.013 3.013 0 00-2.02 4 28.879 28.879 0 0055.531-6.66A29.187 29.187 0 0036.433 2.992a3.061 3.061 0 00-3.416 3v23.589a2.952 2.952 0 01-2.154 2.908z" fill-rule="evenodd" fill="#abc722" fill-opacity="0.5" />
  <path d="M30 29.375V4.014A3.019 3.019 0 0026.657.989 29.4 29.4 0 001 30.152a29.71 29.71 0 00.312 4.295 3 3 0 003.748 2.47l24.2-6.564a1.01 1.01 0 00.74-.978z" fill-rule="evenodd" />
</svg>
