<svg 
 xmlns="http://www.w3.org/2000/svg"
 xmlns:xlink="http://www.w3.org/1999/xlink"
 width="26px" height="26px">
<path fill-rule="evenodd"  fill="rgb(70, 64, 222)"
 d="M23.725,20.349 C23.413,20.804 22.790,20.920 22.335,20.607 C21.880,20.295 21.764,19.672 22.076,19.217 C23.335,17.383 24.000,15.233 24.000,13.000 C24.000,6.935 19.065,2.000 13.000,2.000 C6.934,2.000 2.000,6.935 2.000,13.000 C2.000,19.065 6.934,24.000 13.000,24.000 C15.720,24.000 17.543,23.344 18.272,22.103 C18.490,21.732 18.568,21.358 18.599,21.012 C18.096,21.260 17.555,21.402 17.015,21.402 C16.413,21.403 15.820,21.244 15.303,20.918 C11.203,18.332 7.669,14.798 5.082,10.698 C4.256,9.386 4.509,7.581 5.684,6.405 L6.670,5.418 C7.165,4.924 7.810,4.632 8.487,4.597 C9.199,4.563 9.876,4.816 10.360,5.300 L11.976,6.916 C12.467,7.407 12.717,8.072 12.679,8.789 C12.644,9.445 12.369,10.072 11.901,10.561 C12.975,11.821 14.178,13.024 15.439,14.100 C15.928,13.631 16.555,13.355 17.212,13.321 C17.929,13.274 18.593,13.533 19.084,14.024 L20.701,15.641 C21.192,16.132 21.441,16.797 21.404,17.514 C21.369,18.190 21.077,18.836 20.581,19.331 L20.441,19.471 C20.689,20.299 20.728,21.466 20.275,22.558 C19.625,24.128 17.834,26.000 13.000,26.000 C5.831,26.000 -0.000,20.168 -0.000,13.000 C-0.000,5.831 5.831,-0.000 13.000,-0.000 C20.168,-0.000 26.000,5.831 26.000,13.000 C26.000,15.639 25.213,18.180 23.725,20.349 ZM19.287,17.056 L17.670,15.438 C17.561,15.329 17.417,15.312 17.317,15.318 C17.137,15.328 16.952,15.415 16.809,15.558 L16.210,16.157 C15.850,16.517 15.275,16.548 14.877,16.230 C13.021,14.742 11.256,12.976 9.771,11.123 C9.452,10.725 9.483,10.151 9.844,9.790 L10.442,9.192 C10.585,9.049 10.672,8.864 10.682,8.684 C10.687,8.582 10.671,8.439 10.562,8.331 L8.945,6.714 C8.848,6.616 8.723,6.593 8.625,6.593 C8.614,6.593 8.602,6.593 8.592,6.594 C8.412,6.603 8.227,6.690 8.084,6.833 L7.099,7.819 C6.578,8.340 6.441,9.102 6.774,9.631 C9.202,13.480 12.520,16.798 16.370,19.227 C16.898,19.559 17.660,19.423 18.182,18.902 L19.167,17.916 C19.310,17.774 19.397,17.589 19.407,17.409 C19.412,17.308 19.395,17.164 19.287,17.056 Z"/>
</svg>