<svg 
 xmlns="http://www.w3.org/2000/svg"
 xmlns:xlink="http://www.w3.org/1999/xlink"
 width="26px" height="26px">
<path fill-rule="evenodd"  fill="rgb(54, 166, 235)"
 d="M25.027,26.000 L16.978,26.000 C16.441,26.000 16.005,25.533 16.005,24.956 L16.005,18.048 C16.005,17.472 16.441,17.005 16.978,17.005 L16.990,17.005 L16.990,16.808 C16.990,14.668 18.752,12.991 21.002,12.991 C23.252,12.991 25.014,14.668 25.014,16.808 L25.014,17.005 L25.027,17.005 C25.564,17.005 26.000,17.472 26.000,18.048 L26.000,24.956 C26.000,25.533 25.564,26.000 25.027,26.000 ZM17.950,23.913 L24.055,23.913 L24.055,19.091 L17.950,19.091 L17.950,23.913 ZM23.152,16.808 C23.152,15.646 22.059,14.951 21.002,14.951 C19.945,14.951 18.852,15.646 18.852,16.808 L18.852,17.005 L23.152,17.005 L23.152,16.808 ZM20.987,22.993 C20.435,22.993 19.987,22.503 19.987,21.899 L19.987,21.088 C19.987,20.484 20.435,19.994 20.987,19.994 C21.540,19.994 21.987,20.484 21.987,21.088 L21.987,21.899 C21.987,22.503 21.540,22.993 20.987,22.993 ZM14.007,13.938 L14.007,16.015 L12.007,16.015 L12.007,14.862 C11.677,14.933 11.341,14.990 10.995,14.990 C10.403,14.990 9.843,14.849 9.303,14.649 L9.303,16.526 L3.372,18.844 C2.529,19.163 1.969,19.999 1.969,20.931 L1.969,22.925 L11.985,22.925 L11.985,25.001 L-0.000,25.001 L-0.000,20.931 C-0.000,19.125 1.085,17.502 2.698,16.894 L7.334,15.082 L7.334,13.389 C5.922,12.017 4.996,9.898 4.996,7.495 C4.996,3.362 7.687,-0.000 10.995,-0.000 C14.302,-0.000 16.993,3.362 16.993,7.495 C16.993,10.250 15.784,12.636 14.007,13.938 ZM10.995,2.064 C8.751,2.064 6.925,4.500 6.925,7.495 C6.925,10.489 8.751,12.925 10.995,12.925 C13.238,12.925 15.064,10.489 15.064,7.495 C15.064,4.500 13.238,2.064 10.995,2.064 Z"/>
</svg>