<svg 
 xmlns="http://www.w3.org/2000/svg"
 xmlns:xlink="http://www.w3.org/1999/xlink"
 width="26px" height="26px">
<path fill-rule="evenodd"  fill="rgb(160, 194, 0)"
 d="M19.207,26.000 C15.461,26.000 12.414,22.953 12.414,19.207 C12.414,15.461 15.461,12.414 19.207,12.414 C22.953,12.414 26.000,15.461 26.000,19.207 C26.000,22.953 22.953,26.000 19.207,26.000 ZM19.207,14.414 C16.564,14.414 14.414,16.564 14.414,19.207 C14.414,21.850 16.564,24.000 19.207,24.000 C21.850,24.000 24.000,21.850 24.000,19.207 C24.000,16.564 21.850,14.414 19.207,14.414 ZM15.603,19.914 C15.213,19.523 15.213,18.891 15.603,18.500 C15.994,18.109 16.627,18.109 17.018,18.500 L18.341,19.823 L21.360,16.469 C21.729,16.058 22.362,16.025 22.772,16.394 C23.183,16.764 23.216,17.396 22.847,17.806 L18.417,22.727 L15.603,19.914 ZM21.988,10.751 C21.428,10.751 20.974,10.309 20.974,9.762 L20.974,6.890 L5.384,6.890 L5.384,17.362 C5.384,17.654 5.315,17.937 5.211,18.207 L9.870,18.207 C10.422,18.207 10.870,18.654 10.870,19.207 C10.870,19.760 10.422,20.207 9.870,20.207 L2.655,20.207 C2.351,20.207 2.089,20.064 1.905,19.851 C0.830,19.504 -0.000,18.495 -0.000,17.362 L-0.000,0.989 C-0.000,0.442 0.454,-0.000 1.014,-0.000 L6.047,-0.000 C6.607,-0.000 7.061,0.442 7.061,0.989 L7.061,2.455 L20.311,2.455 C20.870,2.455 21.324,2.898 21.324,3.445 L21.324,4.912 L21.988,4.912 C22.548,4.912 23.002,5.354 23.002,5.901 L23.002,9.762 C23.002,10.309 22.548,10.751 21.988,10.751 ZM19.297,4.434 L6.047,4.434 C5.488,4.434 5.034,3.991 5.034,3.445 L5.034,1.978 L2.028,1.978 L2.028,17.362 C2.028,17.671 2.375,18.010 2.692,18.010 C2.993,18.010 3.356,17.612 3.356,17.362 L3.356,5.901 C3.356,5.354 3.810,4.912 4.370,4.912 L19.297,4.912 L19.297,4.434 Z"/>
</svg>