<svg 
 xmlns="http://www.w3.org/2000/svg"
 xmlns:xlink="http://www.w3.org/1999/xlink"
 width="26px" height="20px">
<path fill-rule="evenodd"  fill="rgb(70, 64, 222)"
 d="M22.500,20.000 L3.500,20.000 C1.570,20.000 -0.000,18.430 -0.000,16.500 L-0.000,3.500 C-0.000,1.570 1.570,-0.000 3.500,-0.000 L22.500,-0.000 C24.430,-0.000 26.000,1.570 26.000,3.500 L26.000,16.500 C26.000,18.430 24.430,20.000 22.500,20.000 ZM24.000,3.500 C24.000,2.673 23.327,2.000 22.500,2.000 L3.500,2.000 C2.673,2.000 2.000,2.673 2.000,3.500 L2.000,5.000 L24.000,5.000 L24.000,3.500 ZM24.000,7.000 L2.000,7.000 L2.000,16.500 C2.000,17.327 2.673,18.000 3.500,18.000 L22.500,18.000 C23.327,18.000 24.000,17.327 24.000,16.500 L24.000,7.000 ZM4.500,3.000 C4.776,3.000 5.000,3.224 5.000,3.500 C5.000,3.776 4.776,4.000 4.500,4.000 C4.224,4.000 4.000,3.776 4.000,3.500 C4.000,3.224 4.224,3.000 4.500,3.000 ZM6.500,3.000 C6.776,3.000 7.000,3.224 7.000,3.500 C7.000,3.776 6.776,4.000 6.500,4.000 C6.224,4.000 6.000,3.776 6.000,3.500 C6.000,3.224 6.224,3.000 6.500,3.000 ZM8.500,3.000 C8.776,3.000 9.000,3.224 9.000,3.500 C9.000,3.776 8.776,4.000 8.500,4.000 C8.224,4.000 8.000,3.776 8.000,3.500 C8.000,3.224 8.224,3.000 8.500,3.000 Z"/>
</svg>