<svg 
 xmlns="http://www.w3.org/2000/svg"
 xmlns:xlink="http://www.w3.org/1999/xlink"
 width="19px" height="26px">
<path fill-rule="evenodd"  fill="rgb(255, 179, 1)"
 d="M10.029,20.985 L10.029,24.013 L15.015,24.013 C15.561,24.013 16.002,24.461 16.002,25.013 C16.002,25.564 15.561,26.012 15.015,26.012 L2.972,26.012 C2.427,26.012 1.985,25.564 1.985,25.013 C1.985,24.461 2.427,24.013 2.972,24.013 L8.011,24.013 L8.011,20.943 C3.822,20.661 -0.008,19.187 -0.008,16.610 L-0.008,4.031 C-0.008,3.739 0.111,3.478 0.299,3.291 C1.412,1.135 5.468,0.010 9.494,0.010 C13.519,0.010 17.575,1.135 18.688,3.291 C18.876,3.478 18.995,3.739 18.995,4.031 L18.995,16.610 C18.995,19.381 14.570,20.876 10.029,20.985 ZM9.494,2.121 C4.835,2.121 1.983,3.660 1.983,4.499 C1.983,5.337 4.835,6.877 9.494,6.877 C14.153,6.877 17.004,5.337 17.004,4.499 C17.004,3.660 14.153,2.121 9.494,2.121 ZM17.004,7.347 C15.174,8.428 12.327,8.987 9.494,8.987 C6.660,8.987 3.813,8.428 1.983,7.347 L1.983,8.967 C1.983,9.733 4.835,11.141 9.494,11.141 C14.153,11.141 17.004,9.733 17.004,8.967 L17.004,7.347 ZM17.004,11.571 C15.174,12.559 12.327,13.070 9.494,13.070 C6.660,13.070 3.813,12.559 1.983,11.571 L1.983,12.890 C1.983,13.657 4.835,15.064 9.494,15.064 C14.153,15.064 17.004,13.657 17.004,12.890 L17.004,11.571 ZM17.004,15.494 C15.174,16.482 12.327,16.993 9.494,16.993 C6.660,16.993 3.813,16.482 1.983,15.494 L1.983,16.610 C1.983,17.373 4.474,18.713 8.570,18.897 C8.707,18.828 8.856,18.779 9.020,18.779 C9.207,18.779 9.372,18.844 9.523,18.933 C14.164,18.927 17.004,17.428 17.004,16.610 L17.004,15.494 Z"/>
</svg>