<svg 
 xmlns="http://www.w3.org/2000/svg"
 xmlns:xlink="http://www.w3.org/1999/xlink"
 width="26px" height="26px">
<path fill-rule="evenodd"  fill="rgb(54, 166, 235)"
 d="M25.000,15.241 L22.490,15.241 C22.317,16.319 22.084,16.941 21.817,17.451 L23.668,19.303 C24.059,19.693 24.059,20.326 23.668,20.717 L20.717,23.668 C20.326,24.059 19.693,24.059 19.303,23.668 L17.417,21.783 C17.010,21.961 16.580,22.111 16.206,22.243 C16.159,22.260 16.113,22.275 16.069,22.291 L16.069,25.000 C16.069,25.553 15.621,26.000 15.069,26.000 L10.931,26.000 C10.379,26.000 9.931,25.553 9.931,25.000 L9.931,22.291 C9.887,22.275 9.841,22.260 9.794,22.243 C9.420,22.111 8.990,21.960 8.582,21.782 L6.697,23.668 C6.323,24.044 5.659,24.044 5.283,23.668 L2.331,20.717 C2.144,20.529 2.038,20.275 2.038,20.010 C2.038,19.744 2.144,19.490 2.331,19.303 L4.214,17.420 C3.940,16.795 3.706,16.035 3.543,15.241 L1.000,15.241 C0.448,15.241 -0.000,14.794 -0.000,14.241 L-0.000,10.931 C-0.000,10.378 0.448,9.931 1.000,9.931 L3.649,9.931 C3.792,9.519 3.984,9.030 4.204,8.570 L2.331,6.697 C1.941,6.307 1.941,5.674 2.331,5.283 L5.283,2.332 C5.674,1.941 6.307,1.941 6.697,2.332 L8.569,4.203 C9.014,3.989 9.501,3.792 9.931,3.643 L9.931,1.000 C9.931,0.447 10.379,-0.000 10.931,-0.000 L15.069,-0.000 C15.621,-0.000 16.069,0.447 16.069,1.000 L16.069,3.644 C16.487,3.789 16.977,3.986 17.430,4.204 L19.302,2.332 C19.693,1.941 20.326,1.941 20.716,2.332 L23.668,5.283 C23.855,5.471 23.961,5.725 23.961,5.990 C23.961,6.256 23.855,6.510 23.668,6.697 L21.804,8.561 C22.021,8.998 22.210,9.458 22.365,9.931 L25.000,9.931 C25.552,9.931 26.000,10.378 26.000,10.931 L26.000,14.241 C26.000,14.794 25.552,15.241 25.000,15.241 ZM24.000,11.931 L21.612,11.931 C21.151,11.931 20.749,11.615 20.640,11.168 C20.446,10.373 20.117,9.570 19.711,8.907 C19.471,8.513 19.531,8.005 19.858,7.679 L21.546,5.990 L20.009,4.453 L18.320,6.142 C17.993,6.467 17.485,6.528 17.092,6.288 C16.425,5.882 15.224,5.436 14.877,5.369 C14.408,5.277 14.069,4.866 14.069,4.388 L14.069,2.000 L11.931,2.000 L11.931,4.388 C11.931,4.858 11.603,5.266 11.143,5.365 C10.697,5.462 9.578,5.879 8.908,6.288 C8.515,6.529 8.006,6.469 7.680,6.142 L5.990,4.453 L4.453,5.990 L6.142,7.680 C6.468,8.006 6.529,8.514 6.288,8.908 C5.879,9.577 5.459,10.751 5.358,11.167 C5.249,11.615 4.848,11.931 4.387,11.931 L2.000,11.931 L2.000,13.241 L4.387,13.241 C4.888,13.241 5.311,13.611 5.378,14.108 C5.532,15.254 5.897,16.453 6.288,17.092 C6.529,17.486 6.468,17.994 6.142,18.320 L4.453,20.010 L5.990,21.547 L7.679,19.857 C8.005,19.530 8.513,19.471 8.907,19.711 C9.293,19.947 9.939,20.174 10.458,20.356 C10.864,20.499 11.185,20.612 11.411,20.736 C11.732,20.911 11.931,21.248 11.931,21.613 L11.931,24.000 L14.069,24.000 L14.069,21.613 C14.069,21.248 14.268,20.911 14.589,20.736 C14.815,20.612 15.136,20.499 15.543,20.356 C16.061,20.174 16.706,19.947 17.092,19.712 C17.486,19.471 17.994,19.532 18.320,19.858 L20.010,21.547 L21.547,20.010 L19.858,18.320 C19.531,17.994 19.471,17.486 19.712,17.092 C20.156,16.366 20.428,15.921 20.619,14.135 C20.673,13.627 21.102,13.241 21.613,13.241 L24.000,13.241 L24.000,11.931 ZM13.000,18.552 C9.939,18.552 7.448,16.061 7.448,13.000 C7.448,9.938 9.939,7.448 13.000,7.448 C16.061,7.448 18.552,9.938 18.552,13.000 C18.552,16.061 16.061,18.552 13.000,18.552 ZM13.000,9.448 C11.041,9.448 9.448,11.042 9.448,13.000 C9.448,14.958 11.041,16.552 13.000,16.552 C14.958,16.552 16.552,14.958 16.552,13.000 C16.552,11.042 14.958,9.448 13.000,9.448 Z"/>
</svg>