<svg 
 xmlns="http://www.w3.org/2000/svg"
 xmlns:xlink="http://www.w3.org/1999/xlink"
 width="26px" height="26px">
<path fill-rule="evenodd"  fill="rgb(102, 240, 227)"
 d="M25.000,26.000 L23.060,26.000 L19.944,26.000 L17.049,26.000 L13.933,26.000 L11.067,26.000 L7.951,26.000 L5.056,26.000 L1.940,26.000 L1.000,26.000 C0.447,26.000 -0.000,25.552 -0.000,25.000 C-0.000,24.448 0.447,24.001 0.999,24.000 L0.999,20.008 C0.999,19.453 1.420,19.003 1.940,19.003 L5.056,19.003 C5.576,19.003 5.997,19.453 5.997,20.008 L5.997,24.000 L7.010,24.000 L7.010,14.011 C7.010,13.448 7.431,12.991 7.951,12.991 L11.067,12.991 C11.587,12.991 12.008,13.448 12.008,14.011 L12.008,24.000 L12.992,24.000 L12.992,16.978 C12.992,16.441 13.413,16.005 13.933,16.005 L17.049,16.005 C17.569,16.005 17.990,16.441 17.990,16.978 L17.990,24.000 L19.003,24.000 L19.003,9.010 C19.003,8.449 19.424,7.994 19.944,7.994 L23.060,7.994 C23.580,7.994 24.001,8.449 24.001,9.010 L24.001,24.000 L25.000,24.000 C25.553,24.000 26.000,24.448 26.000,25.000 C26.000,25.552 25.553,26.000 25.000,26.000 ZM4.115,21.012 L2.881,21.012 L2.881,23.991 L4.115,23.991 L4.115,21.012 ZM10.126,15.030 L8.892,15.030 L8.892,23.961 L10.126,23.961 L10.126,15.030 ZM16.108,17.950 L14.874,17.950 L14.874,24.000 L16.108,24.000 L16.108,17.950 ZM22.119,10.026 L20.885,10.026 L20.885,23.968 L22.119,23.968 L22.119,10.026 ZM22.518,4.483 C22.341,4.483 22.171,4.457 22.005,4.418 L18.361,8.792 C18.482,9.067 18.552,9.370 18.552,9.690 C18.552,10.925 17.546,11.931 16.310,11.931 C15.140,11.931 14.186,11.024 14.088,9.878 L11.584,8.876 C11.188,9.228 10.673,9.448 10.103,9.448 C9.799,9.448 9.509,9.386 9.244,9.275 L6.061,12.034 C6.106,12.212 6.138,12.395 6.138,12.586 C6.138,13.822 5.132,14.828 3.896,14.828 C2.661,14.828 1.655,13.822 1.655,12.586 C1.655,11.350 2.661,10.345 3.896,10.345 C4.201,10.345 4.491,10.407 4.756,10.518 L7.939,7.759 C7.894,7.581 7.862,7.398 7.862,7.207 C7.862,5.971 8.868,4.966 10.103,4.966 C11.274,4.966 12.228,5.872 12.326,7.019 L14.830,8.020 C15.225,7.669 15.741,7.448 16.310,7.448 C16.487,7.448 16.657,7.474 16.823,7.513 L20.467,3.140 C20.345,2.864 20.275,2.561 20.275,2.241 C20.275,1.005 21.281,-0.000 22.518,-0.000 C23.753,-0.000 24.759,1.005 24.759,2.241 C24.759,3.477 23.753,4.483 22.518,4.483 ZM3.896,12.345 C3.764,12.345 3.655,12.453 3.655,12.586 C3.655,12.852 4.138,12.852 4.138,12.586 C4.138,12.453 4.029,12.345 3.896,12.345 ZM10.103,6.966 C9.971,6.966 9.862,7.074 9.862,7.207 C9.862,7.473 10.345,7.473 10.345,7.207 C10.345,7.074 10.236,6.966 10.103,6.966 ZM16.552,9.690 C16.552,9.556 16.443,9.448 16.310,9.448 C16.178,9.448 16.069,9.556 16.069,9.690 C16.069,9.956 16.552,9.956 16.552,9.690 ZM22.518,2.000 C22.384,2.000 22.275,2.108 22.275,2.241 C22.274,2.506 22.758,2.508 22.759,2.241 C22.759,2.108 22.650,2.000 22.518,2.000 Z"/>
</svg>