<svg 
 xmlns="http://www.w3.org/2000/svg"
 xmlns:xlink="http://www.w3.org/1999/xlink"
 width="26px" height="26px">
<path fill-rule="evenodd"  fill="rgb(102, 240, 227)"
 d="M13.000,26.000 C5.832,26.000 -0.000,20.168 -0.000,13.000 C-0.000,5.832 5.832,-0.000 13.000,-0.000 C20.168,-0.000 26.000,5.832 26.000,13.000 C26.000,20.168 20.168,26.000 13.000,26.000 ZM13.000,2.000 C6.935,2.000 2.000,6.935 2.000,13.000 C2.000,19.065 6.935,24.000 13.000,24.000 C19.065,24.000 24.000,19.065 24.000,13.000 C24.000,6.935 19.065,2.000 13.000,2.000 ZM16.482,15.483 C16.482,17.053 15.431,18.369 14.000,18.802 L14.000,19.621 C14.000,20.173 13.553,20.621 13.000,20.621 C12.447,20.621 12.000,20.173 12.000,19.621 L12.000,18.802 C10.569,18.369 9.518,17.053 9.518,15.483 C9.518,14.930 9.965,14.483 10.518,14.483 C11.070,14.483 11.518,14.930 11.518,15.483 C11.518,15.912 11.707,16.292 12.000,16.563 L12.000,13.836 C10.569,13.403 9.518,12.088 9.518,10.517 C9.518,8.947 10.569,7.631 12.000,7.198 L12.000,6.379 C12.000,5.827 12.447,5.379 13.000,5.379 C13.553,5.379 14.000,5.827 14.000,6.379 L14.000,7.198 C15.431,7.631 16.482,8.947 16.482,10.517 C16.482,11.069 16.035,11.517 15.482,11.517 C14.930,11.517 14.482,11.069 14.482,10.517 C14.482,10.088 14.293,9.708 14.000,9.437 L14.000,12.164 C15.431,12.597 16.482,13.912 16.482,15.483 ZM14.482,15.483 C14.482,15.053 14.293,14.674 14.000,14.403 L14.000,16.563 C14.293,16.292 14.482,15.912 14.482,15.483 ZM11.518,10.517 C11.518,10.947 11.707,11.326 12.000,11.597 L12.000,9.437 C11.707,9.708 11.518,10.088 11.518,10.517 Z"/>
</svg>