<svg 
 xmlns="http://www.w3.org/2000/svg"
 xmlns:xlink="http://www.w3.org/1999/xlink"
 width="25px" height="20px">
<path fill-rule="evenodd"  fill="rgb(160, 194, 0)"
 d="M15.974,-0.003 C15.422,-0.003 14.975,0.463 14.975,1.036 C14.975,1.608 15.422,2.074 15.974,2.074 C17.963,2.074 19.582,3.753 19.582,5.818 C19.578,7.148 18.888,8.387 17.778,9.052 C17.474,9.234 17.287,9.560 17.278,9.925 C17.269,10.285 17.437,10.619 17.727,10.817 L18.315,11.205 C21.185,12.617 23.028,15.668 23.003,18.974 C23.003,19.545 23.451,20.010 24.003,20.010 C24.554,20.010 25.003,19.545 25.003,18.973 C25.022,15.268 23.228,11.885 20.203,9.923 L20.049,9.824 L20.169,9.684 C22.222,7.284 22.012,3.597 19.699,1.466 C18.672,0.519 17.348,-0.003 15.974,-0.003 ZM9.062,11.640 C12.957,11.640 16.126,14.929 16.126,18.973 C16.126,19.545 16.574,20.010 17.126,20.010 C17.678,20.010 18.125,19.545 18.125,18.973 C18.122,15.290 16.032,11.930 12.801,10.411 L12.585,10.309 L12.764,10.148 C13.976,9.060 14.670,7.481 14.670,5.818 C14.670,2.608 12.155,-0.003 9.062,-0.003 C5.970,-0.003 3.454,2.608 3.454,5.818 C3.454,7.482 4.149,9.060 5.360,10.148 L5.539,10.309 L5.323,10.411 C2.092,11.930 0.001,15.290 -0.002,18.973 C-0.002,19.545 0.447,20.010 0.998,20.010 C1.550,20.010 1.998,19.545 1.998,18.973 C1.998,14.929 5.167,11.640 9.062,11.640 ZM9.062,9.564 C7.073,9.564 5.455,7.884 5.455,5.818 C5.455,3.753 7.073,2.074 9.062,2.074 C11.051,2.074 12.670,3.753 12.670,5.818 C12.670,7.884 11.051,9.564 9.062,9.564 Z"/>
</svg>