<svg 
 xmlns="http://www.w3.org/2000/svg"
 xmlns:xlink="http://www.w3.org/1999/xlink"
 width="26px" height="26px">
<path fill-rule="evenodd"  fill="rgb(255, 179, 1)"
 d="M25.000,16.069 L24.745,16.069 C23.636,20.291 20.294,23.634 16.069,24.742 L16.069,25.000 C16.069,25.552 15.622,26.000 15.069,26.000 L10.931,26.000 C10.378,26.000 9.931,25.552 9.931,25.000 L9.931,24.745 C5.709,23.636 2.366,20.295 1.258,16.069 L1.000,16.069 C0.447,16.069 -0.000,15.621 -0.000,15.069 L-0.000,10.931 C-0.000,10.379 0.447,9.931 1.000,9.931 L1.258,9.931 C2.366,5.705 5.709,2.364 9.931,1.255 L9.931,1.000 C9.931,0.448 10.378,-0.000 10.931,-0.000 L15.069,-0.000 C15.622,-0.000 16.069,0.448 16.069,1.000 L16.069,1.255 C20.291,2.364 23.634,5.705 24.742,9.931 L25.000,9.931 C25.553,9.931 26.000,10.379 26.000,10.931 L26.000,15.069 C26.000,15.621 25.553,16.069 25.000,16.069 ZM16.069,22.697 C19.204,21.701 21.700,19.204 22.697,16.069 L18.557,16.069 C17.976,17.117 17.117,17.976 16.069,18.557 L16.069,22.697 ZM11.931,23.978 L11.931,24.000 L14.069,23.978 L14.069,19.271 C13.720,19.331 13.366,19.379 13.000,19.379 C12.634,19.379 12.280,19.331 11.931,19.271 L11.931,23.978 ZM13.000,17.379 C15.414,17.379 17.379,15.415 17.379,13.000 C17.379,10.585 15.414,8.621 13.000,8.621 C10.586,8.621 8.621,10.585 8.621,13.000 C8.621,15.415 10.586,17.379 13.000,17.379 ZM9.931,22.697 L9.931,18.557 C8.883,17.976 8.024,17.117 7.443,16.069 L3.303,16.069 C4.300,19.204 6.796,21.701 9.931,22.697 ZM2.000,11.931 L2.021,14.069 L6.729,14.069 C6.670,13.719 6.621,13.366 6.621,13.000 C6.621,12.634 6.670,12.280 6.729,11.931 L2.021,11.931 L2.000,11.931 ZM3.303,9.931 L7.443,9.931 C8.024,8.883 8.882,8.024 9.931,7.443 L9.931,3.303 C6.796,4.299 4.300,6.796 3.303,9.931 ZM14.069,2.000 L11.931,2.022 L11.931,6.729 C12.280,6.669 12.634,6.621 13.000,6.621 C13.366,6.621 13.720,6.669 14.069,6.729 L14.069,2.022 L14.069,2.000 ZM16.069,3.303 L16.069,7.443 C17.117,8.024 17.976,8.883 18.557,9.931 L22.697,9.931 C21.700,6.796 19.204,4.299 16.069,3.303 ZM23.978,11.931 L19.271,11.931 C19.330,12.280 19.379,12.634 19.379,13.000 C19.379,13.366 19.330,13.719 19.271,14.069 L23.978,14.069 L24.000,14.069 L23.978,11.931 Z"/>
</svg>