<svg 
 xmlns="http://www.w3.org/2000/svg"
 xmlns:xlink="http://www.w3.org/1999/xlink"
 width="25px" height="26px">
<path fill-rule="evenodd"  fill="rgb(54, 166, 235)"
 d="M24.502,19.950 L24.061,20.199 C24.069,20.303 24.072,20.405 24.072,20.507 C24.072,20.611 24.068,20.715 24.059,20.823 L24.484,21.066 C24.710,21.196 24.874,21.408 24.940,21.656 C25.006,21.904 24.968,22.168 24.836,22.389 L23.789,24.132 C23.519,24.582 22.931,24.739 22.466,24.486 L21.961,24.212 C21.749,24.343 21.535,24.452 21.339,24.540 L21.339,25.036 C21.339,25.568 20.899,26.000 20.356,26.000 L18.305,26.000 C17.762,26.000 17.322,25.568 17.322,25.036 L17.322,24.517 C17.172,24.438 17.024,24.349 16.878,24.250 L16.540,24.459 C16.315,24.599 16.041,24.642 15.780,24.579 C15.521,24.516 15.299,24.352 15.165,24.125 L14.139,22.382 C13.868,21.921 14.029,21.331 14.498,21.065 L14.935,20.817 C14.927,20.713 14.923,20.610 14.923,20.507 C14.923,20.405 14.927,20.304 14.933,20.204 L14.483,19.952 C14.013,19.689 13.849,19.102 14.115,18.640 L15.120,16.897 C15.251,16.670 15.469,16.504 15.726,16.438 C15.983,16.373 16.255,16.411 16.483,16.546 L16.867,16.773 C17.016,16.671 17.168,16.579 17.322,16.498 L17.322,15.978 C17.322,15.446 17.762,15.014 18.305,15.014 L20.356,15.014 C20.899,15.014 21.339,15.446 21.339,15.978 L21.339,16.475 C21.538,16.565 21.756,16.676 21.971,16.810 L22.523,16.520 C22.990,16.276 23.572,16.439 23.836,16.889 L24.861,18.632 C25.133,19.094 24.971,19.683 24.502,19.950 ZM22.609,18.662 L22.342,18.801 C21.968,18.997 21.510,18.936 21.203,18.651 C20.962,18.427 20.523,18.197 20.058,18.052 C19.650,17.924 19.373,17.553 19.373,17.133 L19.373,16.943 L19.288,16.943 L19.288,17.134 C19.288,17.554 19.010,17.926 18.601,18.053 C18.263,18.158 17.954,18.348 17.629,18.651 C17.308,18.949 16.824,19.001 16.444,18.776 L16.333,18.710 L16.308,18.753 L16.489,18.855 C16.868,19.068 17.059,19.500 16.957,19.917 C16.912,20.103 16.889,20.302 16.889,20.507 C16.889,20.691 16.914,20.886 16.965,21.103 C17.063,21.516 16.875,21.944 16.501,22.156 L16.332,22.252 L16.356,22.293 L16.427,22.249 C16.807,22.014 17.300,22.061 17.626,22.363 C17.954,22.667 18.264,22.858 18.601,22.962 C19.010,23.089 19.288,23.461 19.288,23.882 L19.288,24.071 L19.373,24.071 L19.373,23.882 C19.373,23.461 19.651,23.089 20.059,22.962 C20.523,22.819 20.961,22.589 21.203,22.364 C21.515,22.076 21.981,22.017 22.356,22.221 L22.582,22.344 L22.641,22.245 L22.484,22.155 C22.110,21.941 21.923,21.513 22.022,21.100 C22.080,20.860 22.107,20.672 22.107,20.507 C22.107,20.315 22.083,20.121 22.033,19.912 C21.934,19.498 22.123,19.070 22.498,18.857 L22.668,18.761 L22.609,18.662 ZM19.501,21.986 C18.675,21.986 18.004,21.320 18.004,20.501 C18.004,19.683 18.675,19.018 19.501,19.018 C20.328,19.018 20.999,19.683 20.999,20.501 C20.999,21.320 20.328,21.986 19.501,21.986 ZM14.011,13.945 L14.011,16.016 L11.991,16.016 L11.991,14.865 C11.668,14.933 11.341,14.990 11.003,14.990 C10.413,14.990 9.854,14.850 9.315,14.651 L9.315,16.526 L3.374,18.844 C2.530,19.163 1.969,19.999 1.969,20.931 L1.969,22.925 L12.002,22.925 L12.002,25.001 L-0.003,25.001 L-0.003,20.931 C-0.003,19.125 1.083,17.502 2.699,16.894 L7.343,15.082 L7.343,13.395 C5.925,12.023 4.995,9.901 4.995,7.495 C4.995,3.362 7.690,-0.000 11.003,-0.000 C14.316,-0.000 17.011,3.362 17.011,7.495 C17.011,10.254 15.796,12.644 14.011,13.945 ZM11.003,2.064 C8.756,2.064 6.928,4.500 6.928,7.495 C6.928,10.489 8.756,12.925 11.003,12.925 C13.250,12.925 15.078,10.489 15.078,7.495 C15.078,4.500 13.250,2.064 11.003,2.064 Z"/>
</svg>