<svg xmlns="http://www.w3.org/2000/svg" viewBox="0 0 16 18"><defs><style>.cls-1{opacity:0.6;}.cls-2{fill:#6d6f7a;fill-rule:evenodd;}</style></defs><title>Asset 1</title><g id="Layer_2" data-name="Layer 2"><g id="Layer_1-2" data-name="Layer 1"><g id="Shape_2_copy_2" data-name="Shape 2 copy 2" class="cls-1"><path class="cls-2" d="M14,2H13V0H11V2H5V0H3V2H2A2,2,0,0,0,0,4V16a2,2,0,0,0,2,2H14a2,2,0,0,0,2-2V4A2,2,0,0,0,14,2Zm0,14H2V6H14ZM7.4,14H8.57V11.46L11,8H9.69L8,10.51,6.37,8H5L7.4,11.46Z"/></g></g></g></svg>