<svg xmlns="http://www.w3.org/2000/svg" viewBox="0 0 16 18"><defs><style>.cls-1{opacity:0.9;}.cls-2{fill:#ff7f45;fill-rule:evenodd;}</style></defs><title>Asset 2</title><g id="Layer_2" data-name="Layer 2"><g id="Layer_1-2" data-name="Layer 1"><g id="Shape_2" data-name="Shape 2" class="cls-1"><path class="cls-2" d="M14,2H13V0H11V2H5V0H3V2H2A2,2,0,0,0,0,4V16a2,2,0,0,0,2,2H14a2,2,0,0,0,2-2V4A2,2,0,0,0,14,2Zm0,14H2V6H14ZM5.9,9.61,7.59,14h.8l1.7-4.41V14H11V8H9.75L8,12.58,6.23,8H5v6h.9Z"/></g></g></g></svg>