<svg xmlns="http://www.w3.org/2000/svg" width="20" height="19.906" viewBox="0 0 20 19.906">
  <defs>
    <style>
      .cls-1 {
        fill: #a0c200;
        fill-rule: evenodd;
      }
    </style>
  </defs>
  <path class="cls-1" d="M117.471,714.735l-4.486-2.558a1,1,0,0,0-1,0l-4,2.278-4-2.278a1,1,0,0,0-1,0l-4.486,2.558a1,1,0,0,0-.51.869v5.116a1,1,0,0,0,.51.869l4,2.268v4.537a1,1,0,0,0,.509.87l4.5,2.557a1,1,0,0,0,1,0l4.476-2.557a1,1,0,0,0,.51-0.87v-4.537l4-2.268a1,1,0,0,0,.51-0.869V715.6A1,1,0,0,0,117.471,714.735ZM100,720.14v-4l3.5-2,3.5,2v4l-3.5,2Zm11.49,7.674-3.5,2-3.5-2v-4l3.5-2,3.5,2v4Zm4.5-7.674-3.5,2-3.5-2v-4l3.5-2,3.5,2v4Z" transform="translate(-98 -712.063)"/>
</svg>
