<svg xmlns="http://www.w3.org/2000/svg" width="20" height="20" viewBox="0 0 20 20">
  <defs>
    <style>
      .cls-1 {
        fill: #667284;
        fill-rule: evenodd;
        opacity: 0.75;
      }
    </style>
  </defs>
  <path class="cls-1" d="M949.5,727a1.5,1.5,0,0,0,1.5-1.5h0a0.752,0.752,0,0,0,0-.15l2.79-2.79h0.46l1.61,1.61v0.079a1.5,1.5,0,0,0,3,0V724.17l3.64-3.671h0A1.5,1.5,0,1,0,961,719a0.742,0.742,0,0,0,0,.149l-3.61,3.611h-0.16L955.5,721a1.5,1.5,0,0,0-3,0l-3,3h0A1.5,1.5,0,1,0,949.5,727Zm13.5,4H946V714a1,1,0,0,0-2,0v18a1,1,0,0,0,1,1h18A1,1,0,1,0,963,731Z" transform="translate(-944 -713)"/>
</svg>
