<svg xmlns="http://www.w3.org/2000/svg" width="16" height="20" viewBox="0 0 16 20">
  <defs>
    <style>
      .cls-1 {
        fill: #667284;
        fill-rule: evenodd;
        opacity: 0.75;
      }
    </style>
  </defs>
  <path class="cls-1" d="M1107,713h-10a3,3,0,0,0-3,3v14a3,3,0,0,0,3,3h10a3,3,0,0,0,3-3V716A3,3,0,0,0,1107,713Zm1,17a1,1,0,0,1-1,1h-10a1,1,0,0,1-1-1V716a1,1,0,0,1,1-1h10a1,1,0,0,1,1,1v14Zm-3.62-8.2a3,3,0,1,0-4.76,0,4,4,0,1,0,5.59.835A3.778,3.778,0,0,0,1104.38,721.8ZM1102,719a1,1,0,1,1-1,1A1,1,0,0,1,1102,719Zm0,8a2,2,0,1,1,2-2A2,2,0,0,1,1102,727Z" transform="translate(-1094 -713)"/>
</svg>
