<svg xmlns="http://www.w3.org/2000/svg" width="20" height="20" viewBox="0 0 20 20">
  <defs>
    <style>
      .cls-1 {
        fill: #667284;
        fill-rule: evenodd;
        opacity: 0.75;
      }
    </style>
  </defs>
  <path class="cls-1" d="M741,717a1,1,0,0,0-1,1v10a1,1,0,1,0,2,0V718A1,1,0,0,0,741,717Zm-5,6a1,1,0,0,0-1,1v4a1,1,0,1,0,2,0v-4A1,1,0,0,0,736,723Zm10-2a1,1,0,0,0-1,1v6a1,1,0,1,0,2,0v-6A1,1,0,0,0,746,721Zm2-8H734a3,3,0,0,0-3,3v14a3,3,0,0,0,3,3h14a3,3,0,0,0,3-3V716A3,3,0,0,0,748,713Zm1,17a1,1,0,0,1-1,1H734a1,1,0,0,1-1-1V716a1,1,0,0,1,1-1h14a1,1,0,0,1,1,1v14Z" transform="translate(-731 -713)"/>
</svg>
