<svg xmlns="http://www.w3.org/2000/svg" width="129" height="129" viewBox="0 0 129 129">
  <defs>
    <style>
      .cls-1 {
        fill-rule: evenodd;
        opacity: 0.02;
      }
    </style>
  </defs>
  <path class="cls-1" d="M1128.65,2091h-90.3a19.346,19.346,0,0,0-19.35,19.35v90.3a19.346,19.346,0,0,0,19.35,19.35h90.3a19.346,19.346,0,0,0,19.35-19.35v-90.3A19.346,19.346,0,0,0,1128.65,2091Zm-27.03,72.92a23.969,23.969,0,0,0,6.45-16.12,24.38,24.38,0,1,0-48.76,0,24.065,24.065,0,0,0,6.45,16.12,38.32,38.32,0,0,0-20.96,29.74,6.488,6.488,0,1,0,12.9,1.41,25.8,25.8,0,0,1,51.21,0,6.467,6.467,0,0,0,6.84,5.75h0.71a6.467,6.467,0,0,0,5.68-7.1A38.327,38.327,0,0,0,1101.62,2163.92Zm-18.12-4.64a11.485,11.485,0,1,1,11.48-11.48h0A11.48,11.48,0,0,1,1083.5,2159.28ZM992,2192h183v46H992v-46Z" transform="translate(-1019 -2091)"/>
</svg>
